# xmcd
#
# Track frame offsets:
# 182
# 13450
# 25957
# 39287
# 50200
# 59857
# 70677
# 80857
# 96485
# 107870
# 120365
# 135362
# 145390
# 162797
# 178467
# 194407
# 205357
# 215732
# 229185
# 241542
# 252470
# 263335
# 274332
# 287170
# 297892
# 309632
# 321837
#
# Disc length: 4443 seconds
#
# Revision: 1
# Processed by: cddbd v1.5.1PL0 Copyright (c) Steve Scherf et al.
# Submitted via: CedeCatalogueitor 2.6.0.6 http://personales.ya.com/cdcatalogueitor
#
DISCID=ae11591b
DTITLE=Paul Anka - 2 Gether On 1
DYEAR=1995
DGENRE=
TTITLE0=Ramblin´rose
TTITLE1=I Can´t Stop Lovin You
TTITLE2=The End Of The World
TTITLE3=He´ll Have To Go
TTITLE4=All I Have To Do Is Dream
TTITLE5=Can´t Get Used To Losin You
TTITLE6=Oh, Lonesome Me
TTITLE7=Save The Last Dance For Me
TTITLE8=Blue On Blue
TTITLE9=Moon River
TTITLE10=It´s Not For Me To Say
TTITLE11=Memories Are Made Of This
TTITLE12=You Always Hurt The One You Love
TTITLE13=Cry
TTITLE14=Who´s Sorry Now
TTITLE15=Bonaparte´s Retreat
TTITLE16=I Wish
TTITLE17=Oh, Such A Stranger
TTITLE18=There Won´t Be Not Runnin´back (To You)
TTITLE19=I Went To Your Wedding
TTITLE20=The Story Of My Life
TTITLE21=Memphis, Tennesee
TTITLE22=It´s Only Make Believe
TTITLE23=Truly Yours
TTITLE24=(i´d Be) A Legend In My Time
TTITLE25=I Didn´t Mean Ti Hurt You
TTITLE26=Once A Day
EXTD=
EXTT0=
EXTT1=
EXTT2=
EXTT3=
EXTT4=
EXTT5=
EXTT6=
EXTT7=
EXTT8=
EXTT9=
EXTT10=
EXTT11=
EXTT12=
EXTT13=
EXTT14=
EXTT15=
EXTT16=
EXTT17=
EXTT18=
EXTT19=
EXTT20=
EXTT21=
EXTT22=
EXTT23=
EXTT24=
EXTT25=
EXTT26=
PLAYORDER=
